<svg width="24" height="24" viewBox="0 0 24 24" fill="none" xmlns="http://www.w3.org/2000/svg">
<path d="M12 2C10.0222 2 8.08879 2.58649 6.4443 3.6853C4.79981 4.78412 3.51809 6.3459 2.76121 8.17317C2.00433 10.0004 1.8063 12.0111 2.19215 13.9509C2.578 15.8907 3.53041 17.6725 4.92894 19.0711C6.32746 20.4696 8.10929 21.422 10.0491 21.8079C11.9889 22.1937 13.9996 21.9957 15.8268 21.2388C17.6541 20.4819 19.2159 19.2002 20.3147 17.5557C21.4135 15.9112 22 13.9778 22 12C22 10.6868 21.7413 9.38642 21.2388 8.17317C20.7363 6.95991 19.9997 5.85752 19.0711 4.92893C18.1425 4.00035 17.0401 3.26375 15.8268 2.7612C14.6136 2.25866 13.3132 2 12 2ZM16.692 12.287C16.6543 12.3778 16.5993 12.4603 16.53 12.53L13.53 15.53C13.3878 15.6625 13.1998 15.7346 13.0055 15.7312C12.8112 15.7277 12.6258 15.649 12.4884 15.5116C12.351 15.3742 12.2723 15.1888 12.2688 14.9945C12.2654 14.8002 12.3375 14.6122 12.47 14.47L14.189 12.75H8C7.80109 12.75 7.61033 12.671 7.46967 12.5303C7.32902 12.3897 7.25 12.1989 7.25 12C7.25 11.8011 7.32902 11.6103 7.46967 11.4697C7.61033 11.329 7.80109 11.25 8 11.25H14.189L12.47 9.53C12.3375 9.38782 12.2654 9.19978 12.2688 9.00548C12.2723 8.81118 12.351 8.62579 12.4884 8.48838C12.6258 8.35097 12.8112 8.27225 13.0055 8.26882C13.1998 8.2654 13.3878 8.33752 13.53 8.47L16.53 11.47C16.6346 11.575 16.7058 11.7086 16.7346 11.854C16.7635 11.9994 16.7486 12.15 16.692 12.287Z" fill="#0E0F0C"/>
</svg>
