<svg width="300" height="100" viewBox="0 0 300 100" fill="none" xmlns="http://www.w3.org/2000/svg">
<path fill-rule="evenodd" clip-rule="evenodd" d="M90.38 25.5059C90.38 22.4671 87.9129 20 84.8741 20H39.5059C36.4671 20 34 22.4671 34 25.5059V70.8741C34 73.9129 36.4671 76.38 39.5059 76.38H84.8741C87.9129 76.38 90.38 73.9129 90.38 70.8741V25.5059Z" fill="#134881"/>
<path fill-rule="evenodd" clip-rule="evenodd" d="M86.2506 70.0654C86.2412 71.273 85.2579 72.2506 84.0483 72.2506H61.8217L52.3213 55.7949H86.2506V70.0654ZM38.1294 70.0483V60.3862L59.0621 24.1294H67.2427L49.5585 54.7602L59.6562 72.2506H40.3317C39.116 72.2506 38.1294 71.2638 38.1294 70.0483ZM64.9523 53.9185H56.6814C55.758 53.9185 54.9046 53.434 54.4433 52.6342C53.9813 51.8348 53.9813 50.8493 54.4433 50.05C56.2806 46.8676 58.5809 42.883 58.5809 42.883L64.9523 53.9185ZM84.0483 24.1294C85.2579 24.1294 86.2412 25.107 86.2506 26.3146V53.9185H67.1188L59.6634 41.0076L69.4082 24.1294H84.0483Z" fill="url(#paint0_radial_942_16384)"/>
<path d="M108.519 47.3308H99.8145V71.9398H108.336C116.489 71.9398 121.191 67.9368 121.191 59.5992C121.191 51.1867 116.306 47.3308 108.519 47.3308ZM107.785 67.386H105.618V51.85H107.968C112.633 51.85 115.204 54.0533 115.204 59.6713C115.204 65.2922 112.633 67.386 107.785 67.386ZM141.098 62.7947C141.098 56.2192 137.719 52.9517 132.099 52.9517C126.369 52.9517 122.66 57.2113 122.66 62.8322C122.66 68.4127 125.929 72.4531 132.136 72.4531C136.911 72.4531 139.666 70.2123 140.474 67.6801L135.882 65.843C135.258 67.4956 134.193 68.5973 132.173 68.5973C129.602 68.5973 128.316 66.4314 128.096 64.006H141.098V62.7947ZM132.099 56.7701C134.45 56.7701 135.589 58.46 135.772 60.848H128.169C128.573 58.3505 129.969 56.7701 132.099 56.7701ZM150.39 72.4531C155.643 72.4531 158.544 70.0652 158.544 66.3189C158.544 62.316 155.165 61.471 151.272 60.6259C148.848 60.1126 147.819 59.7088 147.819 58.4226C147.819 57.3584 148.59 56.5855 150.17 56.5855C151.639 56.5855 152.815 57.2488 153.255 59.0484L158.14 57.7246C157.442 54.7138 154.798 52.9517 150.28 52.9517C144.881 52.9517 142.42 55.5213 142.42 58.7917C142.42 62.3535 145.138 63.5647 149.215 64.4472C152.006 65.073 153.108 65.3643 153.108 66.688C153.108 67.9743 151.97 68.7068 150.354 68.7068C148.59 68.7068 147.452 67.8618 147.048 66.0997L142.089 67.3485C142.494 70.1027 145.212 72.4531 150.39 72.4531ZM163.063 51.0771C164.972 51.0771 166.258 49.6812 166.258 47.9566C166.258 46.157 164.972 44.7958 163.063 44.7958C161.151 44.7958 159.867 46.157 159.867 47.9566C159.867 49.6812 161.151 51.0771 163.063 51.0771ZM160.271 71.9398H165.889V53.5025H160.271V71.9398ZM186.532 54.3475L187.083 50.1975C186.752 50.0504 185.982 49.7187 184.805 49.7187C182.749 49.7187 181.059 50.7454 180.289 53.4275C179.297 53.0987 178.157 52.9517 176.909 52.9517C171.582 52.9517 168.643 55.8904 168.643 59.7463C168.643 62.5005 170.186 64.5193 172.355 65.3643C170.59 65.4393 169.122 66.3564 169.122 67.9743C169.122 69.4048 170.152 70.1402 171.178 70.4718V70.5814C169.82 70.766 167.617 71.6831 167.617 74.3652C167.617 77.3386 170.48 79.689 176.909 79.689C183.409 79.689 186.42 77.2665 186.42 73.5202C186.42 71.3514 185.578 69.921 183.85 69.076C182.674 68.4876 181.021 68.1935 178.927 68.1935H177.018C174.887 68.1935 174.045 68.0464 174.045 67.2764C174.045 66.5035 175.034 66.3939 176.248 66.3189C178.708 66.1372 180.617 65.7709 182.123 64.8884C183.594 64.0059 185.062 62.463 185.062 59.6713C185.062 57.2863 184.035 55.4867 182.307 54.3475C182.896 53.8313 183.594 53.6842 184.329 53.6842C185.174 53.6842 186.054 53.9784 186.532 54.3475ZM176.871 62.7947C174.925 62.7947 173.898 61.3613 173.898 59.6367C173.898 57.8717 174.925 56.4759 176.871 56.4759C178.818 56.4759 179.847 57.8717 179.847 59.6367C179.847 61.3613 178.855 62.7947 176.871 62.7947ZM174.925 71.6081H177.018C179.481 71.6081 181.281 71.7927 181.281 73.6673C181.281 75.1352 180.067 76.1648 176.981 76.1648C173.823 76.1648 172.759 74.9881 172.759 73.7019C172.759 72.381 173.97 71.7927 174.925 71.6081ZM188.514 71.9398H194.134V61.7651C194.134 58.7167 195.493 57.468 197.402 57.468C199.129 57.468 199.974 58.4601 199.974 60.7384V71.9398H205.595V59.8559C205.595 55.1175 203.095 52.9517 199.533 52.9517C196.816 52.9517 194.832 54.2005 193.915 56.8451H193.803L193.693 53.5025H188.514V71.9398ZM226.051 62.7947C226.051 56.2192 222.674 52.9517 217.053 52.9517C211.323 52.9517 207.614 57.2113 207.614 62.8322C207.614 68.4127 210.881 72.4531 217.091 72.4531C221.866 72.4531 224.621 70.2123 225.428 67.6801L220.837 65.843C220.211 67.4956 219.147 68.5973 217.128 68.5973C214.556 68.5973 213.269 66.4314 213.05 64.006H226.051V62.7947ZM217.053 56.7701C219.403 56.7701 220.543 58.46 220.727 60.848H213.122C213.529 58.3505 214.922 56.7701 217.053 56.7701ZM228.11 71.9398H233.728V64.4472C233.728 59.7463 235.931 57.7996 238.466 57.7996C239.383 57.7996 240.119 57.9842 240.56 58.2034L241.295 53.3179C241.001 53.1708 240.341 52.9517 239.274 52.9517C237.18 52.9517 234.573 54.1255 233.471 58.0188H233.362L233.287 53.5025H228.11V71.9398ZM254.665 67.2389C257.345 62.6851 265.976 61.1047 265.976 54.0534C265.976 49.7187 262.818 46.8175 257.307 46.8175C252.13 46.8175 249.154 49.6466 248.494 53.5746L253.783 55.0079C254.259 52.8392 255.251 51.5558 257.16 51.5558C259.144 51.5558 260.099 52.8392 260.099 54.4571C260.099 60.0405 248.162 61.3614 248.162 70.4343V71.9398H266.086V67.2389H254.665Z" fill="#191919"/>
<path fill-rule="evenodd" clip-rule="evenodd" d="M122.817 25.0725H116.417V30.3925H120.079V31.6331H116.417V38.3064H115.084V23.8174H122.817V25.0725ZM156.173 38.3064H154.824V23.8174H156.173V38.3064ZM137.364 38.3064H136.014V23.8174H137.364V38.3064ZM133.283 25.0725H126.882V30.3925H130.545V31.6331H126.882V38.3064H125.548V23.8174H133.283V25.0725ZM167.963 25.0725H164.115V38.3064H162.765V25.0725H158.897V23.8174H167.963V25.0725ZM141.434 38.3064H140.1V23.8174H141.535L150.733 36.0346V23.8174H152.083V38.3064H150.767L141.434 25.8725V38.3064ZM176.646 38.3064H175.282V34.7624L169.031 23.8174H170.57L175.963 33.2087L181.357 23.8174H182.895L176.646 34.7624V38.3064ZM113.89 38.3064H112.453L106.843 25.6608C106.492 26.4697 103.076 34.2367 102.711 35.0602C103.427 35.0602 109.55 35.1202 109.901 35.1227L110.459 36.3413C109.238 36.334 103.764 36.3162 102.144 36.3162C101.996 36.6277 101.374 38.0086 101.253 38.3064H99.8145L106.235 23.8174H107.47L113.89 38.3064Z" fill="#191919"/>
<defs>
<radialGradient id="paint0_radial_942_16384" cx="0" cy="0" r="1" gradientUnits="userSpaceOnUse" gradientTransform="translate(74.9102 15.0855) scale(57.1651 57.1651)">
<stop stop-color="#6BE1FB"/>
<stop offset="1" stop-color="#38BDFA"/>
</radialGradient>
</defs>
</svg>
